<?xml version="1.0" encoding="UTF-8" standalone="no"?>
<svg
   xmlns:dc="http://purl.org/dc/elements/1.1/"
   xmlns:cc="http://creativecommons.org/ns#"
   xmlns:rdf="http://www.w3.org/1999/02/22-rdf-syntax-ns#"
   xmlns:svg="http://www.w3.org/2000/svg"
   xmlns="http://www.w3.org/2000/svg"
   xmlns:sodipodi="http://sodipodi.sourceforge.net/DTD/sodipodi-0.dtd"
   xmlns:inkscape="http://www.inkscape.org/namespaces/inkscape"
   sodipodi:docname="face scan.svg"
   inkscape:version="1.0 (4035a4fb49, 2020-05-01)"
   id="svg979"
   version="1.1"
   viewBox="0 0 16.933334 16.933333"
   height="48pt"
   width="48pt">
  <defs
     id="defs973" />
  <sodipodi:namedview
     inkscape:snap-nodes="false"
     inkscape:bbox-nodes="true"
     inkscape:snap-bbox="true"
     inkscape:document-rotation="0"
     inkscape:window-maximized="1"
     inkscape:window-y="-8"
     inkscape:window-x="-8"
     inkscape:window-height="706"
     inkscape:window-width="1366"
     units="pt"
     showgrid="false"
     inkscape:current-layer="layer1"
     inkscape:document-units="pt"
     inkscape:cy="32"
     inkscape:cx="32"
     inkscape:zoom="8.546875"
     inkscape:pageshadow="2"
     inkscape:pageopacity="0.0"
     borderopacity="1.0"
     bordercolor="#666666"
     pagecolor="#ffffff"
     id="base">
    <inkscape:grid
       id="grid1526"
       type="xygrid" />
    <sodipodi:guide
       inkscape:locked="false"
       id="guide1528"
       orientation="56.666615,0"
       position="0.97013909,15.963209" />
    <sodipodi:guide
       inkscape:locked="false"
       id="guide1530"
       orientation="0,56.666667"
       position="0.97013909,0.97016731" />
    <sodipodi:guide
       inkscape:locked="false"
       id="guide1532"
       orientation="-56.666615,0"
       position="15.963195,0.97016731" />
    <sodipodi:guide
       inkscape:locked="false"
       id="guide1534"
       orientation="0,-56.666667"
       position="15.963195,15.963209" />
  </sodipodi:namedview>
  <metadata
     id="metadata976">
    <rdf:RDF>
      <cc:Work
         rdf:about="">
        <dc:format>image/svg+xml</dc:format>
        <dc:type
           rdf:resource="http://purl.org/dc/dcmitype/StillImage" />
        <dc:title></dc:title>
      </cc:Work>
    </rdf:RDF>
  </metadata>
  <g
     transform="translate(0,-280.06668)"
     id="layer1"
     inkscape:groupmode="layer"
     inkscape:label="Layer 1">
    <path
       d="m 5.907194,281.03682 c -0.4259526,8.3e-4 -0.8101867,0.003 -1.1321762,0.008 -0.7478953,0.0109 -1.3273791,0.64884 -1.3368122,1.3797 -0.00422,0.32711 -0.00846,0.72264 -0.013363,1.15889 a 0.36004651,0.36004651 0 0 0 0.3558264,0.36428 0.36004651,0.36004651 0 0 0 0.3642661,-0.35654 c 0.0049,-0.43574 0.00914,-0.82922 0.013363,-1.15608 0.00442,-0.34439 0.3040051,-0.66757 0.6272691,-0.67228 0.3173268,-0.004 0.7004233,-0.005 1.1244388,-0.005 a 0.36004651,0.36004651 0 0 0 0.3586422,-0.36146 0.36004651,0.36004651 0 0 0 -0.3614542,-0.35864 z m 1.8206246,0.0109 a 0.36004651,0.36004651 0 0 0 -0.3642661,0.35864 0.36004651,0.36004651 0 0 0 0.3586422,0.36145 l 1.3586095,0.008 a 0.36004651,0.36004651 0 0 0 0.3635639,-0.35653 0.36004651,0.36004651 0 0 0 -0.3586385,-0.36144 z m 3.3065214,0.0211 a 0.36004651,0.36004651 0 0 0 -0.364266,0.35653 0.36004651,0.36004651 0 0 0 0.355826,0.36426 c 0.396516,0.004 0.753768,0.01 1.055527,0.0136 0.344395,0.004 0.667568,0.3033 0.672274,0.62657 0.0048,0.3256 0.0071,0.71948 0.0078,1.15678 a 0.36004651,0.36004651 0 0 0 0.358643,0.36145 0.36004651,0.36004651 0 0 0 0.35934,-0.36145 c -7.21e-4,-0.4393 -0.0037,-0.8369 -0.0084,-1.16734 -0.01089,-0.74789 -0.648144,-1.32737 -1.379002,-1.33682 -0.302295,-0.004 -0.660919,-0.008 -1.057637,-0.0136 z m -2.5969746,1.40642 c -1.9842187,0 -3.601165,1.61696 -3.6011685,3.60118 3.5e-6,1.33564 0.7342965,2.50267 1.8185145,3.12438 -0.8001634,0.22018 -1.5413041,0.58203 -2.1919221,1.06116 -0.1969309,-0.11431 -0.3414535,-0.31632 -0.3445751,-0.53094 -0.00418,-0.29257 -0.00396,-0.6413 -0.00493,-1.02599 A 0.36004651,0.36004651 0 0 0 3.75183,288.34639 0.36004651,0.36004651 0 0 0 3.3924895,288.70785 c 0.00108,0.38666 0.00418,0.737 0.00842,1.03372 0.00591,0.40481 0.1987994,0.7561 0.4873298,0.99857 -0.6077617,0.56128 -1.1143253,1.23039 -1.4816734,1.98095 -0.4113564,0.84048 -0.2104182,1.72493 0.3213666,2.33328 0.5317884,0.60833 1.3719959,0.98416 2.2805296,0.97536 l 7.2318679,-0.0717 c 0.805249,-0.008 1.543455,-0.35136 2.014712,-0.90082 0.471258,-0.54947 0.655699,-1.34139 0.319261,-2.10261 -0.37303,-0.84401 -0.917867,-1.59278 -1.585051,-2.21021 0.269156,-0.2566 0.439394,-0.61801 0.444435,-1.00841 0.0038,-0.30189 0.0088,-0.66102 0.01334,-1.05764 a 0.36004651,0.36004651 0 0 0 -0.355828,-0.36426 0.36004651,0.36004651 0 0 0 -0.364265,0.35653 c -0.0045,0.39609 -0.0095,0.753 -0.01334,1.05483 -0.0029,0.21578 -0.121289,0.42315 -0.289024,0.5492 -0.654568,-0.48493 -1.399976,-0.85195 -2.205284,-1.07381 1.083434,-0.62171 1.816409,-1.78873 1.816409,-3.12438 0,-1.98423 -1.614139,-3.60118 -3.5983538,-3.60118 z m 0,0.7201 c 1.5950486,0 2.8782616,1.28603 2.8782616,2.88108 0,1.59504 -1.283213,2.88107 -2.8782616,2.88107 -1.5950519,0 -2.8810759,-1.28603 -2.8810759,-2.88107 0,-1.59505 1.286024,-2.88108 2.8810759,-2.88108 z m 4.6749746,1.74889 a 0.36004651,0.36004651 0 0 0 -0.364266,0.35864 c -0.0024,0.37104 -0.0053,1.12579 -0.0078,1.49082 a 0.36004651,0.36004651 0 0 0 0.358638,0.36145 0.36004651,0.36004651 0 0 0 0.361455,-0.35582 c 0.0026,-0.36844 0.006,-1.12593 0.0084,-1.49363 a 0.36004651,0.36004651 0 0 0 -0.35653,-0.36146 z m -9.3365911,0.0957 a 0.36004651,0.36004651 0 0 0 -0.361454,0.35864 l -0.00842,1.39518 a 0.36004651,0.36004651 0 0 0 0.3593407,0.36146 0.36004651,0.36004651 0 0 0 0.361454,-0.35582 l 0.00774,-1.398 a 0.36004651,0.36004651 0 0 0 -0.3586408,-0.36181 z m 4.6032494,4.63772 c 1.0564839,-0.0109 2.0497327,0.2554 2.9155297,0.72641 -0.128314,6.2e-4 -0.22656,10e-4 -0.364267,0.003 a 0.36004651,0.36004651 0 0 0 -0.358638,0.35864 0.36004651,0.36004651 0 0 0 0.358638,0.36145 c 0.439059,-6.8e-4 0.836356,-0.003 1.166637,-0.008 0.0703,-10e-4 0.137636,-0.0122 0.204636,-0.0246 0.688812,0.58271 1.246081,1.3163 1.615989,2.15324 0.22851,0.51702 0.113055,0.96629 -0.209557,1.34245 -0.322609,0.37614 -0.873787,0.64251 -1.475348,0.64835 l -7.2318692,0.0717 c -0.7021694,0.007 -1.3521682,-0.29641 -1.7299073,-0.72854 -0.3777425,-0.43211 -0.5063834,-0.95002 -0.2158873,-1.54354 0.3745346,-0.76525 0.9088469,-1.43784 1.5576215,-1.97744 0.055533,0.007 0.1104511,0.0175 0.1673639,0.0182 0.3188102,0.004 0.7013631,0.008 1.1244425,0.0136 a 0.36004651,0.36004651 0 0 0 0.3642661,-0.35629 0.36004651,0.36004651 0 0 0 -0.3565323,-0.36427 c -0.099873,-10e-4 -0.170201,-10e-4 -0.2651091,-0.003 0.81643,-0.43083 1.7441576,-0.68168 2.7319915,-0.69126 z m -0.7179827,0.70461 a 0.36004651,0.36004651 0 0 0 -0.3614541,0.35864 0.36004651,0.36004651 0 0 0 0.3565287,0.36146 l 1.4880065,0.0109 a 0.36004651,0.36004651 0 0 0 0.3642624,-0.35583 0.36004651,0.36004651 0 0 0 -0.3586385,-0.36426 z"
       style="color:#000000;font-style:normal;font-variant:normal;font-weight:normal;font-stretch:normal;font-size:medium;line-height:normal;font-family:sans-serif;font-variant-ligatures:normal;font-variant-position:normal;font-variant-caps:normal;font-variant-numeric:normal;font-variant-alternates:normal;font-variant-east-asian:normal;font-feature-settings:normal;font-variation-settings:normal;text-indent:0;text-align:start;text-decoration:none;text-decoration-line:none;text-decoration-style:solid;text-decoration-color:#000000;letter-spacing:normal;word-spacing:normal;text-transform:none;writing-mode:lr-tb;direction:ltr;text-orientation:mixed;dominant-baseline:auto;baseline-shift:baseline;text-anchor:start;white-space:normal;shape-padding:0;shape-margin:0;inline-size:0;clip-rule:nonzero;display:inline;overflow:visible;visibility:visible;opacity:1;isolation:auto;mix-blend-mode:normal;color-interpolation:sRGB;color-interpolation-filters:linearRGB;solid-color:#000000;solid-opacity:1;vector-effect:none;fill:#000000;fill-opacity:1;fill-rule:nonzero;stroke:none;stroke-width:0.529167;stroke-linecap:round;stroke-linejoin:round;stroke-miterlimit:4;stroke-dasharray:none;stroke-dashoffset:0;stroke-opacity:1;color-rendering:auto;image-rendering:auto;shape-rendering:auto;text-rendering:auto;enable-background:accumulate;stop-color:#000000;stop-opacity:1"
       id="path1040" />
  </g>
</svg>
