<?xml version="1.0" ?><svg id="Layer_3" style="enable-background:new 0 0 64 64;" version="1.1" viewBox="0 0 64 64" xml:space="preserve" xmlns="http://www.w3.org/2000/svg" xmlns:xlink="http://www.w3.org/1999/xlink"><g><path d="M35,36c0-0.553-0.448-1-1-1H19V16.922c2.937-0.424,5.307-2.683,5.808-5.689l1.178-7.068   c0.064-0.385-0.101-0.771-0.423-0.99c-0.322-0.221-0.743-0.232-1.078-0.031l-3.993,2.396l-1.563-3.909C18.776,1.249,18.409,1,18,1   s-0.776,0.249-0.929,0.629l-1.563,3.909l-3.993-2.396c-0.334-0.201-0.754-0.189-1.078,0.031c-0.322,0.219-0.487,0.605-0.423,0.99   l1.178,7.068c0.501,3.007,2.871,5.265,5.808,5.689V25h-2.114c-0.257-1.19-0.959-2.25-1.996-2.941l-0.281-0.188   C11.755,21.302,10.761,21,9.733,21c-1.385,0-2.687,0.539-3.666,1.519l-2.774,2.774c-0.391,0.391-0.391,1.023,0,1.414l2.774,2.774   C7.046,30.461,8.348,31,9.733,31c1.028,0,2.022-0.302,2.875-0.871l0.282-0.188C13.928,29.25,14.63,28.19,14.886,27H17v8H2   c-0.552,0-1,0.447-1,1v4c0,0.553,0.448,1,1,1h1.269l6.778,21.303C10.179,62.718,10.564,63,11,63h14   c0.436,0,0.821-0.282,0.953-0.697L32.731,41H34c0.552,0,1-0.447,1-1V36z M11.782,28.277l-0.283,0.188   c-1.23,0.822-2.971,0.65-4.018-0.397L5.414,26l2.068-2.067c1.047-1.048,2.787-1.22,4.018-0.397l0.281,0.188   C12.544,24.231,13,25.083,13,26S12.544,27.769,11.782,28.277z M13.165,10.904l-0.822-4.933l3.143,1.886   c0.251,0.151,0.555,0.184,0.834,0.09c0.278-0.093,0.5-0.304,0.609-0.576L18,4.692l1.071,2.679c0.109,0.272,0.332,0.483,0.609,0.576   c0.276,0.094,0.582,0.062,0.834-0.09l3.143-1.886l-0.822,4.933C22.44,13.277,20.406,15,18,15S13.56,13.277,13.165,10.904z    M24.269,61H11.731l-1.273-4h15.083L24.269,61z M26.178,55H9.822L5.368,41h25.265L26.178,55z M33,39h-1H4H3v-2h30V39z"/><path d="M25,21.303v3.395C25,26.519,26.481,28,28.303,28c0.653,0,1.287-0.191,1.832-0.555L32.303,26h9.283l3.707,3.707   C45.48,29.895,45.735,30,46,30h5c0.265,0,0.52-0.105,0.707-0.293l7-7C58.895,22.52,59,22.266,59,22v-5   c0-0.266-0.105-0.52-0.293-0.707L52.414,10L53,9.414l5.293,5.293C58.488,14.902,58.744,15,59,15s0.512-0.098,0.707-0.293l3-3   c0.391-0.391,0.391-1.023,0-1.414l-9-9c-0.391-0.391-1.023-0.391-1.414,0L48,5.586l-1.293-1.293c-0.391-0.391-1.023-0.391-1.414,0   l-12,12c-0.391,0.391-0.391,1.023,0,1.414L35.586,20h-3.283l-2.168-1.445C29.59,18.191,28.956,18,28.303,18   C26.481,18,25,19.481,25,21.303z M57,21.586L50.586,28h-4.172l-4-4l2.293-2.293c0.211-0.211,0.374-0.211,0.585,0   c0.912,0.912,2.503,0.912,3.415,0l2-2c0.211-0.211,0.374-0.211,0.585,0c0.912,0.912,2.503,0.912,3.415,0L57,17.414V21.586z    M53,3.414L60.586,11L59,12.586l-5.293-5.293c-0.391-0.391-1.023-0.391-1.414,0L51,8.586L49.414,7L53,3.414z M46,6.414L55.586,16   l-2.293,2.293c-0.211,0.211-0.374,0.211-0.585,0c-0.912-0.912-2.503-0.912-3.415,0l-2,2c-0.211,0.211-0.374,0.211-0.585,0   c-0.912-0.912-2.503-0.912-3.415,0L41,22.586L35.414,17L46,6.414z M27,21.303C27,20.584,27.584,20,28.303,20   c0.258,0,0.508,0.076,0.723,0.219l2.42,1.613C31.609,21.941,31.803,22,32,22h5.586l2,2H32c-0.197,0-0.391,0.059-0.555,0.168   l-2.419,1.613C28.811,25.924,28.561,26,28.303,26C27.584,26,27,25.416,27,24.697V21.303z"/><path d="M54,45.422c0-1.783-0.523-3.509-1.512-4.992l-2.656-3.984c-0.371-0.557-1.293-0.557-1.664,0l-2.656,3.984   C44.523,41.913,44,43.639,44,45.422v0.336c0,1.054,0.427,2.084,1.172,2.828l0.242,0.242C46.17,49.584,47.175,50,48.243,50h1.515   c1.068,0,2.072-0.416,2.829-1.172l0.242-0.242C53.573,47.842,54,46.812,54,45.758V45.422z M52,45.758   c0,0.526-0.213,1.042-0.586,1.414l-0.242,0.242C50.793,47.792,50.291,48,49.757,48h-1.515c-0.534,0-1.036-0.208-1.415-0.586   l-0.242-0.242C46.213,46.8,46,46.284,46,45.758v-0.336c0-1.387,0.407-2.729,1.176-3.883L49,38.803l1.824,2.736   C51.593,42.692,52,44.035,52,45.422V45.758z"/><path d="M40.832,49.445c-0.371-0.557-1.293-0.557-1.664,0l-2.656,3.984C35.523,54.913,35,56.639,35,58.422v0.336   c0,1.054,0.427,2.084,1.172,2.828l0.242,0.242C37.17,62.584,38.175,63,39.243,63h1.515c1.068,0,2.072-0.416,2.829-1.172   l0.242-0.242C44.573,60.842,45,59.812,45,58.758v-0.336c0-1.783-0.523-3.509-1.512-4.992L40.832,49.445z M43,58.758   c0,0.526-0.213,1.042-0.586,1.414l-0.242,0.242C41.793,60.792,41.291,61,40.757,61h-1.515c-0.534,0-1.036-0.208-1.415-0.586   l-0.242-0.242C37.213,59.8,37,59.284,37,58.758v-0.336c0-1.387,0.407-2.729,1.176-3.883L40,51.803l1.824,2.736   C42.593,55.692,43,57.035,43,58.422V58.758z"/><path d="M58.832,49.445c-0.371-0.557-1.293-0.557-1.664,0l-2.656,3.984C53.523,54.913,53,56.639,53,58.422v0.336   c0,1.054,0.427,2.084,1.172,2.828l0.242,0.242C55.17,62.584,56.175,63,57.243,63h1.515c1.068,0,2.072-0.416,2.829-1.172   l0.242-0.242C62.573,60.842,63,59.812,63,58.758v-0.336c0-1.783-0.523-3.509-1.512-4.992L58.832,49.445z M61,58.758   c0,0.526-0.213,1.042-0.586,1.414l-0.242,0.242C59.793,60.792,59.291,61,58.757,61h-1.515c-0.534,0-1.036-0.208-1.415-0.586   l-0.242-0.242C55.213,59.8,55,59.284,55,58.758v-0.336c0-1.387,0.407-2.729,1.176-3.883L58,51.803l1.824,2.736   C60.593,55.692,61,57.035,61,58.422V58.758z"/></g></svg>