<svg id="Layer_1" data-name="Layer 1" xmlns="http://www.w3.org/2000/svg" viewBox="0 0 96 96"><path d="M51,38.85c-6.84,0-12.19-7.1-12.2-16.15,0-.65-.33-8.9,4.14-12.19C45,9,47.75,8.76,51.09,9.94c3.33-1.18,6.09-1,8.2.57,4.55,3.36,4.15,11.85,4.13,12.21C63.42,31.59,57.83,38.85,51,38.85ZM47.13,11.18a5,5,0,0,0-3.06.94c-3.69,2.72-3.32,10.42-3.32,10.5v.05c0,8,4.48,14.18,10.2,14.18s10.47-6.36,10.47-14.18c0-.13.36-7.84-3.32-10.56-1.58-1.16-3.78-1.24-6.53-.22a1,1,0,0,1-.34.06H51a1,1,0,0,1-.35-.06A10.22,10.22,0,0,0,47.13,11.18Z"/><path d="M63.13,27.16a2.69,2.69,0,0,1-1.51-.47A1,1,0,0,1,62.71,25a.78.78,0,0,0,.42.14c.65,0,1.38-1.07,1.38-2.49s-.73-2.48-1.38-2.48a1.06,1.06,0,0,0-.29.15,1,1,0,0,1-1.31-.22,1,1,0,0,1,.06-1.32,7.5,7.5,0,0,0,1.9-5.16c-.15-2-1.39-3.94-3.69-5.71a1,1,0,0,1-.34-.46,4.84,4.84,0,0,0-3.49-3C51.5,3.11,44.38,5,42,6.87c-6.29,5.07-1.49,11.8-1.28,12.09a1,1,0,0,1-1.33,1.44,1.65,1.65,0,0,0-.58-.21c-.64,0-1.37,1.06-1.37,2.48s.73,2.49,1.37,2.49a.78.78,0,0,0,.42-.14,1,1,0,0,1,1.39.29,1,1,0,0,1-.29,1.38,2.75,2.75,0,0,1-1.52.47c-1.89,0-3.37-2-3.37-4.49,0-2.17,1.1-3.93,2.62-4.38-1.35-2.85-2.9-8.48,2.7-13C43.51,3.14,51.24,1,56.54,2.54a6.88,6.88,0,0,1,4.7,4c2.64,2.09,4.06,4.43,4.25,7a8.68,8.68,0,0,1-1.2,4.93,4.58,4.58,0,0,1,2.22,4.23C66.51,25.19,65,27.16,63.13,27.16Z"/><path d="M51,47a1.06,1.06,0,0,1-.31-.05c-3.75-1.21-6.79-7.23-7.13-7.92a1,1,0,0,1-.06-.73l.85-2.76a1,1,0,0,1,1.92.59l-.74,2.37c.93,1.77,3.23,5.45,5.47,6.43,2.24-1,4.54-4.66,5.46-6.43l-.72-2.32a1,1,0,0,1,.66-1.25,1,1,0,0,1,1.25.66l.84,2.71a.93.93,0,0,1-.06.73c-.33.69-3.38,6.71-7.13,7.92A1,1,0,0,1,51,47Z"/><path d="M20.47,59.67h-.09a1,1,0,0,1-.91-1.09,53.81,53.81,0,0,1,1.71-9.41,6.45,6.45,0,0,1,4.11-4.44c6-2.08,18.63-7.06,18.75-7.11a1,1,0,0,1,.73,1.87c-.12,0-12.81,5-18.82,7.13a4.41,4.41,0,0,0-2.83,3.06,51.27,51.27,0,0,0-1.65,9.08A1,1,0,0,1,20.47,59.67Z"/><path d="M68.25,94H33.55a1,1,0,0,1-1-.77l-1-4.16-1,4.16a1,1,0,0,1-1,.77H19.39a1,1,0,0,1-1-.74L15.93,84a1,1,0,0,1,1.93-.52L20.16,92h8.71l1.76-7.56a1,1,0,0,1,1-.77,1,1,0,0,1,1,.77L34.35,92H67.77l2.47-3.14a1,1,0,0,1,.9-.38,1,1,0,0,1,.79.57l1.21,2.57h9.17a234.6,234.6,0,0,0-5-42.26,4.47,4.47,0,0,0-3.09-3.31,140.63,140.63,0,0,1-17.21-6.59,1,1,0,1,1,.86-1.81,137,137,0,0,0,16.93,6.48,6.46,6.46,0,0,1,4.46,4.8,236.19,236.19,0,0,1,5,43.67,1,1,0,0,1-.28.72,1,1,0,0,1-.72.3H72.51a1,1,0,0,1-.91-.57l-.79-1.68L69,93.62A1,1,0,0,1,68.25,94Z"/><path d="M51,83.08a1,1,0,0,1-.71-.3c-1.62-1.62-6.55-30.87-8.6-43.37a1,1,0,0,1,2-.32c2.12,13,5.6,32.83,7.34,39.88,1.74-7,5.21-26.84,7.33-39.77a1,1,0,1,1,2,.33c-2,12.46-7,41.63-8.6,43.25A1,1,0,0,1,51,83.08Z"/><path d="M54.56,67.29a1,1,0,0,1-1-.81L51,52.52l-2.63,14a1,1,0,0,1-2-.37l2.7-14.31-1.34-1.73a1,1,0,0,1,0-1.19l2.45-3.5A1,1,0,0,1,51,45h0a1,1,0,0,1,.82.42l2.45,3.5a1,1,0,0,1,0,1.19L52.85,51.8l2.69,14.31a1,1,0,0,1-.79,1.16A.65.65,0,0,1,54.56,67.29ZM49.74,49.43l1.16,1.5L51,51l0-.06,1.17-1.5L51,47.7Z"/><path d="M31.61,85.67h-.1a1,1,0,0,1-.9-1.09c0-.13,1.22-12.66-2.71-22.48a1,1,0,0,1,.56-1.3,1,1,0,0,1,1.3.56c4.12,10.28,2.9,22.89,2.84,23.42A1,1,0,0,1,31.61,85.67Z"/><path d="M71,90.48h0a1,1,0,0,1-1-1c0-.9.76-22.15,2-29a1,1,0,1,1,2,.37c-1.26,6.66-2,28.44-2,28.66A1,1,0,0,1,71,90.48Z"/><path d="M17.53,84.77c-.42,0-.69,0-.73,0a1,1,0,0,1-.88-.79s-.8-3.68-2.74-5.38c-2.79-2.44-1.2-12.65.71-15.07a2.26,2.26,0,0,1,2-.93,4.18,4.18,0,0,1,2.38,1.2L17.84,60a2.18,2.18,0,0,1,2.72-2.34,2.55,2.55,0,0,1,2.24,2.18,38.77,38.77,0,0,0,.85,4.44A56.3,56.3,0,0,1,24.73,70a20.7,20.7,0,0,1-.12,5.68A24.78,24.78,0,0,0,24.37,81a1,1,0,0,1-.13.59C22.55,84.43,19.06,84.77,17.53,84.77ZM15.72,64.56c-.05,0-.13,0-.26.18-1.62,2.05-2.59,10.89-1,12.33a12.42,12.42,0,0,1,3.18,5.69c1.16,0,3.49-.28,4.67-2a27.42,27.42,0,0,1,.28-5.48,18.21,18.21,0,0,0,.11-5.12,52.55,52.55,0,0,0-1-5.47,38.87,38.87,0,0,1-.9-4.7c0-.15,0-.24-.71-.42a.21.21,0,0,0-.2,0,.15.15,0,0,0-.06.15l.74,7.1a1,1,0,0,1-.67,1,1,1,0,0,1-1.17-.42c-.87-1.39-2.27-2.92-3-3Z"/><path d="M25.55,85.43a1.06,1.06,0,0,1-.51-.14,5.6,5.6,0,0,1-2.71-4.19,1,1,0,1,1,2-.22,3.59,3.59,0,0,0,.62,1.64,3.63,3.63,0,0,0,1.12,1,1,1,0,0,1,.35,1.37A1,1,0,0,1,25.55,85.43Z"/><path d="M19.58,68a1,1,0,0,1-1-.87L13.24,26.4a1,1,0,0,1,2-.26l5.35,40.72A1,1,0,0,1,19.71,68Z"/><path d="M14.24,27.27a1,1,0,0,1-.21-2,1,1,0,0,1,1.19.79,1,1,0,0,1-.77,1.17h-.21Z"/></svg>