<svg id="Layer_1" data-name="Layer 1" xmlns="http://www.w3.org/2000/svg" viewBox="0 0 64 64"><path d="M40.82,45.54H27.67a.76.76,0,0,1-.75-.75V42.45a11,11,0,0,0-3-7.69,14.59,14.59,0,1,1,20.81-.08,11.53,11.53,0,0,0-3.12,8.13v2A.75.75,0,0,1,40.82,45.54ZM28.42,44H40.07V42.81a13,13,0,0,1,3.55-9.17,13.1,13.1,0,0,0-10.9-22.15A13.2,13.2,0,0,0,21.34,22.3,13,13,0,0,0,25,33.7a12.5,12.5,0,0,1,3.47,8.75Z"/><path d="M34.25,54.71a5.86,5.86,0,0,1-5.85-5.85V44.79a.76.76,0,0,1,.75-.75H39.34a.75.75,0,0,1,.75.75v4.07A5.86,5.86,0,0,1,34.25,54.71ZM29.9,45.54v3.32a4.35,4.35,0,1,0,8.69,0V45.54Z"/><path d="M39.34,48.68H29.15a.75.75,0,0,1,0-1.5H39.34a.75.75,0,0,1,0,1.5Z"/><path d="M39,51.51H29.52a.75.75,0,0,1,0-1.5H39a.75.75,0,0,1,0,1.5Z"/><path d="M35.63,34H32.87a.75.75,0,0,1-.75-.68L32,31.64A7,7,0,0,1,30.37,31l-1.25,1a.74.74,0,0,1-1-.05L26.16,30a.74.74,0,0,1-.05-1l1-1.24a7.31,7.31,0,0,1-.67-1.61L24.86,26a.76.76,0,0,1-.68-.75V22.49a.76.76,0,0,1,.68-.75l1.61-.15A7.31,7.31,0,0,1,27.14,20l-1-1.24a.74.74,0,0,1,.05-1l1.95-2a.74.74,0,0,1,1,0l1.25,1A8.1,8.1,0,0,1,32,16.11l.16-1.63a.76.76,0,0,1,.75-.68h2.76a.77.77,0,0,1,.75.68l.15,1.62a8.42,8.42,0,0,1,1.61.67l1.25-1a.74.74,0,0,1,1,0l2,2a.74.74,0,0,1,0,1l-1,1.25a8.6,8.6,0,0,1,.67,1.6l1.6.15a.76.76,0,0,1,.69.75v2.77a.76.76,0,0,1-.69.75l-1.6.15a8.6,8.6,0,0,1-.67,1.6l1,1.25a.74.74,0,0,1,0,1L40.4,32a.74.74,0,0,1-1,.05l-1.25-1a7.82,7.82,0,0,1-1.61.67l-.15,1.62A.76.76,0,0,1,35.63,34Zm-2.08-1.5H35L35.09,31a.74.74,0,0,1,.59-.66,6.57,6.57,0,0,0,2.12-.88.74.74,0,0,1,.88,0l1.14.94,1-1-.94-1.14a.74.74,0,0,1,0-.88,6.48,6.48,0,0,0,.88-2.12.73.73,0,0,1,.66-.59l1.46-.13V23.17L41.36,23a.73.73,0,0,1-.66-.59,6.57,6.57,0,0,0-.88-2.12.74.74,0,0,1,0-.88l.94-1.14-1-1-1.14.94a.74.74,0,0,1-.88,0,6.57,6.57,0,0,0-2.12-.88.74.74,0,0,1-.59-.66L35,15.3h-1.4l-.14,1.48a.77.77,0,0,1-.6.67,6.26,6.26,0,0,0-2.1.86.74.74,0,0,1-.88,0l-1.14-.94-1,1,.93,1.13a.74.74,0,0,1,.05.88,6.32,6.32,0,0,0-.88,2.13.75.75,0,0,1-.66.59l-1.46.13v1.41l1.46.13a.75.75,0,0,1,.66.59,6.32,6.32,0,0,0,.88,2.13.75.75,0,0,1-.05.89l-.93,1.12,1,1,1.14-.94a.74.74,0,0,1,.88,0,6.06,6.06,0,0,0,2.1.86.77.77,0,0,1,.6.67Zm10-7.19h0ZM34.25,28a4.15,4.15,0,1,1,4.14-4.14A4.15,4.15,0,0,1,34.25,28Zm0-6.79a2.65,2.65,0,1,0,2.64,2.65A2.65,2.65,0,0,0,34.25,21.23Z"/><path d="M50.26,62.75a.76.76,0,0,1-.74-.62c0-.07-1.17-6.67-1.74-11.92-.42-3.82,1.84-7.62,3.85-10.5,2.63-3.76,5.64-8.89,5.49-15.18a22.47,22.47,0,0,0-5.26-14.06,22.12,22.12,0,0,0-4.73-4.14A22.47,22.47,0,0,0,23.32,6C17,9.7,12.94,16.45,12.11,24.5a11.51,11.51,0,0,1-2,5.41l-3,4.35a1.38,1.38,0,0,0,.25,1.86l1.72,1.45a2.77,2.77,0,0,1,.56,3.58l-.23.37,1.75.93a.75.75,0,0,1,.38.5.73.73,0,0,1-.14.62l-1.2,1.57a5.18,5.18,0,0,1,1.11,5.33,2.9,2.9,0,0,0,.41,2.8c1.12,1.27,3.81,1.69,7.6,1.18,5.14-.69,6.88-.85,7.84,0a2.55,2.55,0,0,1,.68,2.06c0,2.16.07,5.48.07,5.48l-1.5,0s-.07-3.34-.07-5.52c0-.34,0-.8-.16-.93-.53-.46-3.65,0-6.66.37-4.36.59-7.45,0-8.93-1.69a4.32,4.32,0,0,1-.72-4.17C10.72,47,8.82,46,8.8,45.94a.75.75,0,0,1-.38-.5.74.74,0,0,1,.14-.62l1.12-1.46L8,42.47a.75.75,0,0,1-.28-1.06l.66-1a1.27,1.27,0,0,0-.25-1.64L6.4,37.27a2.87,2.87,0,0,1-.51-3.86l3-4.35a10.17,10.17,0,0,0,1.7-4.71c.88-8.54,5.23-15.7,11.93-19.66A24,24,0,0,1,48,5.08,23.28,23.28,0,0,1,53,9.5a24,24,0,0,1,5.62,15c.16,6.73-3,12.13-5.76,16.08-1.86,2.67-4,6.15-3.59,9.48C49.84,55.25,51,61.8,51,61.87a.75.75,0,0,1-.61.87Z"/></svg>